<svg id="Layer_1" data-name="Layer 1" xmlns="http://www.w3.org/2000/svg" viewBox="0 0 165.69 165.69"><defs><style>.cls-1{fill:#ef493b;}</style></defs><title>TB_logo_mark</title><path class="cls-1" d="M494.4,178A77.63,77.63,0,1,0,572,255.64,77.72,77.72,0,0,0,494.4,178m0,160.48a82.85,82.85,0,1,1,82.84-82.85,82.94,82.94,0,0,1-82.84,82.85m4.42-58.89h4.27a3.13,3.13,0,0,1,3.34,3.31,3.08,3.08,0,0,1-3.36,3.26H487.46a3.2,3.2,0,0,1-3.18-2.17,3.12,3.12,0,0,1,1-3.63,5,5,0,0,1,2.26-.73c1.31-.12,2.64,0,4,0a1.35,1.35,0,0,0,.23-0.05V241.8H475.59c0,0.78,0,1.56,0,2.34,0,1.35,0,2.7-.12,4a3,3,0,0,1-3.16,2.58A3.12,3.12,0,0,1,469,248.3a6.23,6.23,0,0,1-.12-1.17q0-4.14,0-8.27c0-2.46,1.16-3.65,3.59-3.65q22.74,0,45.49,0c2.38,0,3.55,1.21,3.56,3.6q0,4.26,0,8.52a3.06,3.06,0,0,1-1.65,3,3.56,3.56,0,0,1-3.75-.23,3.11,3.11,0,0,1-1.26-2.79c0-1.52,0-3,0-4.56v-1h-16V279.6Zm22.73,25H469a2.61,2.61,0,1,1,0-5.22h52.52a2.61,2.61,0,0,1,0,5.22M506.81,222.9a0.26,0.26,0,0,1-.43.19l-7.89-7a0.26,0.26,0,0,1,0-.4l7.9-6.21a0.26,0.26,0,0,1,.42.2V222.9Zm-6.27.58H483.9a0.55,0.55,0,0,1-.55-0.55V209.54a0.32,0.32,0,0,1,.53-0.25l16.81,13.77a0.24,0.24,0,0,1-.15.42m9.58-21.82h-0.84a0.58,0.58,0,0,0-.36.13l-13.45,10.76a0.58,0.58,0,0,1-.73,0l-13.16-10.75a0.58,0.58,0,0,0-.37-0.13h-1a0.58,0.58,0,0,0-.58.58V227a0.58,0.58,0,0,0,.58.58h29.9a0.58,0.58,0,0,0,.58-0.58V202.24a0.58,0.58,0,0,0-.58-0.58" transform="translate(-411.55 -172.8)"/></svg>